<?xml version="1.0" encoding="utf-8"?><svg xmlns="http://www.w3.org/2000/svg" xmlns:xlink="http://www.w3.org/1999/xlink" width="1600" height="1274" preserveAspectRatio="xMidYMid" viewBox="0 0 1600 1274" style="z-index:1;shape-rendering:crispedges;display:block;background-color:rgb(241, 242, 243);animation-play-state:paused" ><g transform="" style="animation-play-state:paused" ><linearGradient id="lg-0.1144342842115299" x1="0" x2="1" y1="0" y2="0" style="animation-play-state:paused" ><stop stop-color="#ff4b2b" offset="0" style="animation-play-state:paused" ></stop>

  
<stop stop-color="#ff416b" offset="1" style="animation-play-state:paused" ></stop></linearGradient>
<path d="M0 0L0 998.614501953125Q200 732.9419555664062 400 696.7393798828125T800 465.78839111328125T1200 280.4574279785156T1600 2.5304365158081055L1600 0z" fill="url(#lg-0.1144342842115299)" opacity="0.4" style="opacity:0.4;animation-play-state:paused" ></path>
<path d="M0 0L0 1082.05712890625Q200 896.5008544921875 400 855.9238891601562T800 531.146484375T1200 288.6852722167969T1600 -99.58760833740234L1600 0z" fill="url(#lg-0.1144342842115299)" opacity="0.4" style="opacity:0.4;animation-play-state:paused" ></path>
<path d="M0 0L0 1009.8724975585938Q200 772.615478515625 400 729.0997314453125T800 556.0057373046875T1200 276.56378173828125T1600 -24.143171310424805L1600 0z" fill="url(#lg-0.1144342842115299)" opacity="0.4" style="opacity:0.4;animation-play-state:paused" ></path>
<path d="M0 0L0 1021.1404418945312Q200 876.0563354492188 400 852.7864990234375T800 453.9775695800781T1200 200.19769287109375T1600 1.9884270429611206L1600 0z" fill="url(#lg-0.1144342842115299)" opacity="0.4" style="opacity:0.4;animation-play-state:paused" ></path>
<path d="M0 0L0 1118.38818359375Q200 793.44921875 400 773.5311279296875T800 463.53057861328125T1200 221.0658416748047T1600 -19.12522315979004L1600 0z" fill="url(#lg-0.1144342842115299)" opacity="0.4" style="opacity:0.4;animation-play-state:paused" ></path></g></svg>